<svg width="66" height="68" viewBox="0 0 66 68" fill="none" xmlns="http://www.w3.org/2000/svg">
<g clip-path="url(#clip0_1_2881)">
<path d="M22.1762 26.557C22.3016 26.557 22.3991 26.557 22.5105 26.557C23.3323 26.557 24.154 26.557 24.9758 26.557C25.2544 26.557 25.5469 26.5426 25.8254 26.4853C26.4522 26.3848 27.0232 26.1409 27.4968 25.696C28.1375 25.0789 28.3882 24.304 28.3604 23.4143C28.3185 22.1946 27.7614 21.3049 26.689 20.7739C26.1876 20.5156 25.6444 20.4295 25.0733 20.4295C24.1819 20.4295 23.2905 20.4295 22.3991 20.4295C22.3294 20.4295 22.2459 20.4438 22.1623 20.4438C22.1762 22.4815 22.1762 24.5049 22.1762 26.557ZM28.1514 30.3024C29.9621 33.1581 31.7588 35.9707 33.5695 38.8408C33.4302 38.8551 33.3466 38.8551 33.263 38.8551C31.7588 38.8551 30.2546 38.8551 28.7503 38.8551C28.5414 38.8551 28.416 38.7833 28.3046 38.5968C26.7029 36.0425 25.1012 33.4738 23.4855 30.9195C23.2209 30.5033 23.3601 30.575 22.8588 30.575C22.6498 30.575 22.4409 30.575 22.2319 30.5894C22.2181 30.5894 22.2041 30.6038 22.1484 30.6324C22.1484 33.3446 22.1484 36.0855 22.1484 38.8264C20.6302 38.8264 19.1539 38.8264 17.6636 38.8264C17.6636 31.3356 17.6636 23.8591 17.6636 16.3683C17.761 16.354 17.8446 16.354 17.9282 16.354C20.3934 16.354 22.8726 16.3397 25.338 16.354C26.5915 16.3683 27.8172 16.5693 28.9871 17.0715C31.0345 17.9469 32.2323 19.5398 32.6502 21.7497C32.9009 23.0699 32.9009 24.3757 32.6084 25.696C32.0931 27.9633 30.7281 29.427 28.5832 30.1445C28.4717 30.2019 28.3325 30.245 28.1514 30.3024Z" fill="#F9F0EC"/>
<path d="M36.0904 16.2681C40.3385 16.2681 44.5727 16.2681 48.8068 16.2681C48.8068 17.6314 48.8068 18.966 48.8068 20.3579C46.049 20.3579 43.3052 20.3579 40.5474 20.3579C40.5474 22.0943 40.5474 23.7876 40.5474 25.5096C43.2634 25.5096 45.9654 25.5096 48.6814 25.5096C48.6814 26.8873 48.6814 28.2362 48.6814 29.6137C48.5561 29.6281 48.4308 29.6281 48.3054 29.6281C45.8541 29.6281 43.4026 29.6281 40.9513 29.6281C40.826 29.6281 40.7006 29.6281 40.5613 29.6281C40.5613 31.3358 40.5613 33.0004 40.5613 34.7081C43.3192 34.7081 46.0629 34.7081 48.8208 34.7081C48.8208 36.1001 48.8208 37.449 48.8208 38.8266C44.5727 38.8266 40.3525 38.8266 36.1183 38.8266C36.0625 38.6113 36.0347 16.7417 36.0904 16.2681Z" fill="#F9F0EC"/>
<path d="M17.4539 9.72416C17.5096 9.93947 17.5792 10.1691 17.635 10.3986C17.6488 10.456 17.6488 10.5135 17.6767 10.5996C17.4817 10.6713 17.3007 10.7287 17.1196 10.8004C14.7379 11.604 12.4398 12.6086 10.267 13.9144C8.31699 15.0768 6.50635 16.4401 4.93247 18.119C3.77644 19.3531 2.78753 20.7164 2.0772 22.2663C0.559036 25.5954 0.572965 28.9391 2.09113 32.2827C2.94075 34.1482 4.18035 35.741 5.61494 37.1474C7.24454 38.7403 9.08309 40.0461 11.0469 41.1654C13.8744 42.7727 16.8828 43.9207 20.0027 44.7816C22.7326 45.5279 25.5043 46.0015 28.3178 46.2597C31.2149 46.5324 34.098 46.5611 36.995 46.3602C41.4102 46.0445 45.714 45.2122 49.8925 43.6767C52.7338 42.6292 55.4219 41.2946 57.8872 39.5009C59.5168 38.3097 60.9932 36.9465 62.2328 35.3249C63.4027 33.7894 64.2802 32.1104 64.7259 30.2019C65.3527 27.5184 65.0184 24.9497 63.8623 22.4671C63.1103 20.8743 62.0935 19.4823 60.8956 18.2195C59.1686 16.397 57.1769 14.9333 55.018 13.7136C52.9984 12.5655 50.8814 11.6328 48.6807 10.8865C48.5414 10.8435 48.4022 10.8004 48.2628 10.7574C48.249 10.7574 48.235 10.7287 48.2071 10.7C48.235 10.6139 48.2628 10.5135 48.2907 10.4274C48.3603 10.2264 48.43 10.0255 48.5135 9.81027C48.7086 9.88201 48.8897 9.93947 49.0707 9.99684C52.0234 11.0157 54.823 12.3216 57.4415 14.0866C59.3914 15.3925 61.1603 16.928 62.6506 18.7791C63.8763 20.3003 64.8373 21.9792 65.4223 23.8591C66.3555 26.9014 66.1466 29.8718 64.8791 32.7706C63.9738 34.837 62.6367 36.5734 61.0488 38.1232C59.1546 39.9744 56.9958 41.4237 54.6698 42.6435C51.6613 44.222 48.4996 45.327 45.2265 46.1019C42.4688 46.762 39.6692 47.1639 36.8418 47.3503C34.3348 47.5082 31.8137 47.5082 29.3067 47.3217C24.7104 46.9916 20.2116 46.0876 15.8661 44.466C12.9829 43.3897 10.2391 42.0121 7.73202 40.1752C5.72637 38.7115 3.92964 37.0183 2.50897 34.9375C1.40865 33.3302 0.614749 31.5795 0.23869 29.6422C-0.290579 26.9444 0.0715521 24.3471 1.21366 21.8645C2.14684 19.841 3.48394 18.119 5.07175 16.5979C6.99383 14.7467 9.18052 13.2974 11.5344 12.0776C13.345 11.1449 15.2114 10.3843 17.1335 9.73853C17.2031 9.7098 17.2867 9.69543 17.3563 9.68115C17.3842 9.69543 17.412 9.7098 17.4539 9.72416Z" fill="#F9F0EC"/>
<path d="M17.8859 11.3027C17.9137 11.3888 17.9416 11.4606 17.9833 11.5467C17.9416 11.5753 17.9137 11.6041 17.8859 11.6184C17.4123 11.7906 16.9248 11.9485 16.4513 12.1207C13.9163 13.0391 11.4929 14.2015 9.25043 15.7369C7.48153 16.9423 5.89373 18.3486 4.57055 20.0707C3.53987 21.434 2.74596 22.9264 2.31419 24.6053C1.6735 27.131 1.95206 29.5705 3.02453 31.9239C3.69308 33.3877 4.61233 34.6648 5.69873 35.8272C7.55117 37.8075 9.72398 39.343 12.0778 40.6058C15.0445 42.1987 18.1923 43.3036 21.4514 44.0929C23.9446 44.6812 26.4655 45.0687 29.0144 45.2696C31.7304 45.4849 34.4463 45.4993 37.1623 45.2983C40.9369 45.0256 44.6418 44.3512 48.2492 43.1745C51.2297 42.1987 54.0851 40.9215 56.7035 39.1421C58.4724 37.9366 60.0881 36.5303 61.4112 34.794C62.4558 33.4163 63.2637 31.9096 63.6815 30.2019C64.3083 27.6906 64.0297 25.2654 62.9573 22.9407C62.1634 21.2187 61.0491 19.755 59.7259 18.4491C57.971 16.7558 55.9932 15.3925 53.8622 14.2589C52.1769 13.3548 50.422 12.5942 48.6252 11.9915C48.3884 11.9054 48.1517 11.805 47.887 11.7189C47.9149 11.6184 47.9288 11.5467 47.9566 11.4462C47.9985 11.4462 48.0263 11.4318 48.0541 11.4462C51.7451 12.6947 55.241 14.3306 58.3192 16.8132C59.9766 18.1478 61.4391 19.6976 62.5534 21.5631C63.4029 22.9694 63.974 24.4906 64.1968 26.1408C64.4894 28.1929 64.169 30.1589 63.3751 32.0531C62.6926 33.6603 61.7176 35.0666 60.5477 36.3151C58.8624 38.1232 56.8986 39.5583 54.7675 40.7493C52.0376 42.2848 49.1544 43.3754 46.1599 44.1647C43.6668 44.8248 41.1319 45.2839 38.5691 45.5279C36.1039 45.7718 33.6386 45.8723 31.1594 45.7575C27.4962 45.5996 23.875 45.1117 20.3093 44.1647C16.9805 43.275 13.791 42.0551 10.7964 40.2901C8.76294 39.0846 6.88262 37.664 5.28088 35.8846C3.95771 34.4209 2.89917 32.785 2.25848 30.8907C1.2278 27.8198 1.52029 24.8493 2.98275 21.9936C3.84629 20.286 5.04411 18.8509 6.42299 17.5738C8.13615 15.9952 10.0583 14.7324 12.1057 13.6561C13.9302 12.7091 15.8523 11.9485 17.8023 11.3027C17.8162 11.3171 17.8301 11.3171 17.8859 11.3027Z" fill="#F9F0EC"/>
<path d="M31.3258 10.6857C31.3258 10.5853 31.3258 10.5422 31.3397 10.4992C31.4929 10.04 31.6461 9.5808 31.7993 9.12155C31.8829 8.8776 31.8829 8.86332 31.6879 8.71975C31.298 8.41843 30.9079 8.13142 30.5179 7.83007C30.4901 7.80137 30.4483 7.78702 30.4204 7.77267C30.4344 7.74397 30.4344 7.72962 30.4483 7.70092C31.0472 7.70092 31.6322 7.70092 32.2451 7.70092C32.44 7.09821 32.6211 6.5242 32.8022 5.9502C32.8161 5.9502 32.8439 5.9502 32.8579 5.9502C32.8996 6.065 32.9275 6.1798 32.9693 6.2946C33.0946 6.71076 33.2339 7.12691 33.3593 7.54307C33.4011 7.70091 33.4986 7.74397 33.6378 7.74397C34.0974 7.74397 34.5432 7.74397 35.0028 7.74397C35.0724 7.74397 35.1282 7.75832 35.2675 7.75832C35.1421 7.85877 35.0724 7.93053 35.0028 7.98793C34.6685 8.23188 34.3482 8.47583 34.0139 8.71975C33.791 8.89196 33.791 8.89196 33.8746 9.16464C34.0278 9.65254 34.1949 10.1548 34.3621 10.6857C34.0417 10.5566 33.8329 10.327 33.5961 10.1548C33.3454 9.9826 33.1086 9.79602 32.8579 9.60953C32.3425 9.95387 31.8551 10.2983 31.3258 10.6857Z" fill="#F9F0EC"/>
<path d="M26.479 6.26582C26.6601 6.72503 26.8412 7.18423 27.0361 7.64343C27.064 7.71519 27.0919 7.77259 27.1197 7.84434C27.1615 7.94479 27.2312 7.97349 27.3287 7.95914C27.8719 7.91609 28.4011 7.87303 29.0001 7.81563C28.9304 7.90174 28.9025 7.94479 28.8469 7.98784C28.5265 8.26049 28.2201 8.54753 27.8998 8.82012C27.5655 9.12153 27.5933 9.02106 27.7604 9.45159C27.8858 9.79592 28.039 10.126 28.1783 10.4704C28.2201 10.5709 28.2619 10.6713 28.3175 10.8435C27.9833 10.7001 27.7466 10.5135 27.4958 10.3556C27.2451 10.1978 26.9944 10.04 26.7297 9.88203C26.2562 10.2839 25.7966 10.6857 25.337 11.0731C25.323 11.0588 25.3091 11.0444 25.2951 11.0444C25.4205 10.5279 25.5459 9.99686 25.6573 9.48023C25.713 9.22192 25.727 9.22192 25.518 9.0928C25.1559 8.86322 24.7937 8.63363 24.4316 8.404C24.3481 8.3466 24.2784 8.2892 24.1392 8.20309C24.5013 8.16005 24.7799 8.13134 25.0723 8.10265C25.2951 8.08829 25.518 8.07394 25.7548 8.04524C25.9777 8.03089 25.9915 8.01654 26.0473 7.78694C26.1448 7.35643 26.2422 6.94028 26.3537 6.50977C26.3676 6.42367 26.3955 6.33757 26.4233 6.25146C26.4373 6.25146 26.4512 6.26582 26.479 6.26582Z" fill="#F9F0EC"/>
<path d="M38.8062 9.95409C38.263 10.2698 37.7476 10.5712 37.1766 10.9012C37.3995 10.2555 37.6919 9.71014 37.9287 9.10741C37.483 8.69133 37.0373 8.27514 36.5498 7.83028C36.6613 7.83028 36.7309 7.83028 36.7866 7.83028C37.2601 7.87334 37.7338 7.91638 38.1934 7.97379C38.3605 7.98814 38.4441 7.93074 38.5137 7.77288C38.6669 7.37108 38.848 6.98362 39.0012 6.59617C39.043 6.51006 39.0848 6.40961 39.1544 6.26611C39.1822 6.38091 39.2101 6.43831 39.224 6.51006C39.3216 6.95492 39.4051 7.39978 39.5026 7.85898C39.5583 8.13163 39.5583 8.14599 39.8508 8.17469C40.3522 8.23209 40.8537 8.28949 41.369 8.37559C40.8815 8.71998 40.3522 9.00702 39.8368 9.33708C39.9622 9.95409 40.0876 10.5568 40.213 11.1596C40.199 11.1738 40.1851 11.1738 40.1711 11.1882C39.6976 10.772 39.2658 10.3703 38.8062 9.95409Z" fill="#F9F0EC"/>
<path d="M45.7843 9.32264C46.3831 9.45184 46.9542 9.56659 47.6088 9.71015C47.0238 10.0258 46.4667 10.2411 45.9235 10.5424C45.9932 11.1595 46.0628 11.7622 46.1324 12.451C45.6449 11.9918 45.2968 11.4895 44.851 11.059C44.2939 11.3173 43.7368 11.5613 43.1518 11.834C43.1797 11.7479 43.1936 11.6905 43.2215 11.6474C43.4583 11.2169 43.695 10.8007 43.9318 10.3845C44.0711 10.1263 44.0711 10.1263 43.876 9.91101C43.5696 9.58095 43.2772 9.23653 42.9708 8.90648C42.929 8.86347 42.9011 8.82037 42.8872 8.71999C43.4721 8.83474 44.0432 8.94957 44.6421 9.07869C44.9346 8.54778 45.2272 8.01679 45.5057 7.48584C45.5196 7.48584 45.5474 7.48584 45.5614 7.48584C45.6449 8.08855 45.7146 8.69126 45.7843 9.32264Z" fill="#F9F0EC"/>
<path d="M22.5091 11.5756C22.0634 11.3603 21.6177 11.1307 21.172 10.9155C20.9073 10.7863 20.9213 10.7863 20.6984 11.0016C20.3502 11.3461 19.9881 11.6761 19.6399 12.0204C19.6399 12.0062 19.612 11.9343 19.6259 11.8626C19.6678 11.4895 19.7235 11.1164 19.7652 10.7433C19.7791 10.5855 19.807 10.4276 19.821 10.2411C19.2778 9.96837 18.7485 9.71005 18.2192 9.43746C18.2192 9.40873 18.2192 9.39436 18.2332 9.36572C18.8042 9.25088 19.3892 9.13605 19.9742 9.0213C20.0578 8.41858 20.1413 7.83022 20.2249 7.15576C20.573 7.72977 20.8238 8.28943 21.1302 8.83472C21.7291 8.71997 22.328 8.60514 22.9269 8.47598C22.9409 8.49033 22.9409 8.50467 22.9548 8.51903C22.7598 8.73425 22.5509 8.96392 22.3559 9.17914C22.1887 9.36572 22.0076 9.53793 21.8406 9.72442C21.6734 9.89663 21.6734 9.91099 21.7848 10.1119C21.9938 10.4994 22.1887 10.8724 22.3977 11.2599C22.4394 11.3461 22.4813 11.4322 22.523 11.5183C22.537 11.5325 22.523 11.5469 22.5091 11.5756Z" fill="#F9F0EC"/>
<path d="M62.0213 55.4594H64.1277L63.4795 53.7576C63.2815 53.234 63.1374 52.8226 63.0294 52.4859C62.9394 52.8786 62.8313 53.2714 62.6874 53.6641L62.0213 55.4594ZM60.2389 57.9654L62.5973 51.8501H63.4975L66 57.9654H65.0638L64.3437 56.1139H61.7512L61.0851 57.9654H60.2389ZM56.1522 53.5332H59.6808V57.9654H58.9246V54.1504H56.9083V57.9654H56.1522V53.5332ZM51.8673 55.74C51.8673 56.301 51.9934 56.7311 52.2455 57.0116C52.4975 57.2921 52.8035 57.4418 53.1996 57.4418C53.5777 57.4418 53.8838 57.2921 54.1358 57.0116C54.3879 56.7311 54.5139 56.301 54.5139 55.7213C54.5139 55.179 54.3879 54.7676 54.1358 54.487C53.8838 54.2065 53.5777 54.0568 53.1996 54.0568C52.8215 54.0568 52.4975 54.1878 52.2455 54.4684C51.9934 54.7676 51.8673 55.179 51.8673 55.74ZM51.0932 55.74C51.0932 54.9171 51.3274 54.3187 51.7773 53.926C52.1555 53.5894 52.6235 53.4397 53.1816 53.4397C53.7938 53.4397 54.2979 53.6454 54.694 54.0382C55.09 54.4309 55.27 54.992 55.27 55.6839C55.27 56.2449 55.18 56.6937 55.018 57.0304C54.838 57.3483 54.5859 57.61 54.2618 57.7971C53.9378 57.9841 53.5777 58.0589 53.1816 58.0589C52.5515 58.0589 52.0474 57.8532 51.6693 57.4605C51.2733 57.0677 51.0932 56.488 51.0932 55.74ZM47.2766 55.7774C47.2766 56.3384 47.3846 56.7685 47.6187 57.0304C47.8526 57.3108 48.1406 57.4418 48.4648 57.4418C48.8068 57.4418 49.0948 57.2921 49.329 57.0116C49.563 56.7311 49.6889 56.301 49.6889 55.7026C49.6889 55.1415 49.5809 54.7114 49.347 54.4309C49.1129 54.1504 48.8429 54.0195 48.5188 54.0195C48.1948 54.0195 47.9067 54.169 47.6726 54.4684C47.4026 54.7676 47.2766 55.1977 47.2766 55.7774ZM46.5924 59.6672V53.5332H47.2766V54.113C47.4386 53.8886 47.6186 53.7203 47.8347 53.6081C48.0327 53.4959 48.2848 53.4397 48.5728 53.4397C48.9509 53.4397 49.2929 53.5332 49.5809 53.7389C49.8691 53.926 50.0851 54.2065 50.2471 54.5619C50.3912 54.9171 50.4632 55.3099 50.4632 55.7213C50.4632 56.1701 50.3732 56.5815 50.2111 56.9369C50.049 57.2921 49.815 57.5727 49.4909 57.7784C49.1848 57.9654 48.8429 58.0589 48.5008 58.0589C48.2487 58.0589 48.0148 58.0028 47.8167 57.9092C47.6186 57.7971 47.4566 57.6662 47.3306 57.5165V59.6859H46.5924V59.6672ZM42.7757 57.3483H43.7659C44.1981 57.3483 44.4861 57.2921 44.6481 57.1986C44.8101 57.1051 44.8821 56.9369 44.9001 56.6937C44.9001 56.5628 44.8461 56.4131 44.7561 56.301C44.6661 56.1888 44.54 56.0952 44.3961 56.0766C44.252 56.0391 44.018 56.0205 43.6759 56.0205H42.7578V57.3483H42.7757ZM42.7757 55.4034H43.586C43.9099 55.4034 44.1259 55.3846 44.252 55.3472C44.3781 55.3098 44.4861 55.2537 44.5761 55.1415C44.6661 55.048 44.7201 54.9171 44.7201 54.7675C44.7201 54.5244 44.63 54.3747 44.4681 54.2812C44.306 54.1878 44.018 54.1504 43.6219 54.1504H42.7937V55.4034H42.7757ZM42.0196 53.5332H43.7659C44.1981 53.5332 44.5041 53.5706 44.7201 53.6454C44.9361 53.7203 45.1162 53.8511 45.2602 54.0382C45.4042 54.2252 45.4942 54.4496 45.4942 54.7114C45.4942 54.9171 45.4582 55.1042 45.3682 55.2725C45.2782 55.4221 45.1522 55.5716 44.9722 55.6651C45.1882 55.7399 45.3502 55.8709 45.4942 56.0579C45.6383 56.2449 45.6923 56.4693 45.6923 56.7311C45.6563 57.1426 45.5123 57.4605 45.2423 57.6662C44.9722 57.8719 44.5761 57.9654 44.054 57.9654H42.0377V53.5332H42.0196ZM36.3846 57.9654V51.8501H40.8314V52.5607H37.1947V54.4309H40.5973V55.1415H37.1947V57.2173H40.9754V57.9279H36.3846V57.9654ZM31.8118 54.5431H30.0654C29.6874 54.5431 29.3994 54.5057 29.2013 54.4309C28.9853 54.3561 28.8412 54.2252 28.7332 54.0568C28.6252 53.8886 28.5712 53.7016 28.5712 53.5145C28.5712 53.234 28.6792 52.9908 28.8953 52.8039C29.1113 52.6169 29.4354 52.5234 29.8854 52.5234H31.8297V54.5431H31.8118ZM32.622 57.9654V51.8501H29.8854C29.3453 51.8501 28.9133 51.9061 28.6252 52.0184C28.3371 52.1306 28.121 52.3177 27.9411 52.5982C27.7791 52.8786 27.689 53.178 27.689 53.5145C27.689 53.9446 27.833 54.3187 28.121 54.6179C28.4091 54.9171 28.8412 55.1042 29.4354 55.179C29.2194 55.2725 29.0572 55.3847 28.9492 55.4782C28.7151 55.7026 28.4812 55.9644 28.2831 56.2823L27.221 57.9467H28.2471L29.0572 56.675C29.2913 56.301 29.4894 56.0205 29.6513 55.8335C29.8134 55.6465 29.9395 55.4969 30.0654 55.4221C30.1915 55.3472 30.3175 55.2912 30.4436 55.2537C30.5336 55.235 30.6955 55.2163 30.8935 55.2163H31.8297V57.9279H32.622V57.9654ZM25.7266 55.74C25.4566 55.8522 25.0425 55.9457 24.4844 56.0205C24.1784 56.0579 23.9444 56.1139 23.8183 56.1701C23.6923 56.2261 23.5843 56.301 23.5123 56.4132C23.4403 56.5254 23.4043 56.6376 23.4043 56.7685C23.4043 56.9742 23.4762 57.1238 23.6383 57.2734C23.8003 57.4043 24.0163 57.4792 24.3044 57.4792C24.5924 57.4792 24.8625 57.423 25.0786 57.2921C25.3126 57.1612 25.4746 56.9929 25.5827 56.7685C25.6727 56.6002 25.7087 56.3571 25.7087 56.0205L25.7266 55.74ZM25.7987 57.4043C25.5106 57.6475 25.2405 57.8157 24.9886 57.9092C24.7365 58.0028 24.4485 58.0589 24.1605 58.0589C23.6743 58.0589 23.2963 57.9467 23.0262 57.7035C22.7561 57.4605 22.6301 57.1612 22.6301 56.8059C22.6301 56.5815 22.6841 56.3945 22.7741 56.2074C22.8821 56.0204 23.0082 55.8896 23.1702 55.7774C23.3322 55.6651 23.5123 55.5903 23.7103 55.5342C23.8544 55.4968 24.0884 55.4594 24.3764 55.4221C24.9886 55.3472 25.4386 55.2725 25.7266 55.1602C25.7266 55.0668 25.7266 54.992 25.7266 54.9733C25.7266 54.6741 25.6546 54.4496 25.5106 54.3374C25.3126 54.169 25.0245 54.0755 24.6465 54.0755C24.2864 54.0755 24.0163 54.1317 23.8544 54.2625C23.6743 54.3935 23.5662 54.5992 23.4762 54.9171L22.7381 54.8049C22.8102 54.487 22.9182 54.2439 23.0621 54.0382C23.2242 53.8511 23.4403 53.7016 23.7283 53.5894C24.0163 53.4772 24.3585 53.4397 24.7365 53.4397C25.1145 53.4397 25.4386 53.4772 25.6727 53.5706C25.9067 53.6641 26.0867 53.7763 26.1947 53.9073C26.3028 54.0382 26.3928 54.2065 26.4289 54.4122C26.4468 54.5431 26.4648 54.7676 26.4648 55.1042V56.0953C26.4648 56.7872 26.4828 57.2361 26.5188 57.423C26.5548 57.61 26.6088 57.7784 26.6988 57.9654H25.9067C25.8707 57.7971 25.8167 57.61 25.7987 57.4043ZM18.9034 53.5332H19.6596V55.4408C19.8936 55.4408 20.0737 55.4033 20.1637 55.3098C20.2537 55.2163 20.3977 54.9545 20.5957 54.5057C20.7398 54.1504 20.8657 53.926 20.9558 53.8138C21.0458 53.7016 21.1539 53.6267 21.2798 53.5894C21.4059 53.5519 21.6039 53.5332 21.856 53.5332H21.9999V54.1504H21.784C21.5859 54.1504 21.4599 54.1878 21.4059 54.2439C21.3519 54.3 21.2619 54.487 21.1358 54.7863C21.0278 55.0668 20.9198 55.2725 20.8118 55.3847C20.7218 55.4969 20.5777 55.5904 20.3617 55.6839C20.6857 55.7774 21.0098 56.0766 21.3159 56.5815L22.144 57.9467H21.3159L20.5057 56.5815C20.3438 56.301 20.1997 56.114 20.0737 56.0392C19.9476 55.9457 19.8036 55.9083 19.6415 55.9083V57.9654H18.8855V53.5332H18.9034ZM17.5352 56.3383L18.2733 56.4318C18.1832 56.9369 17.9852 57.3296 17.6432 57.61C17.3012 57.8906 16.9051 58.0402 16.4189 58.0402C15.8068 58.0402 15.3207 57.8345 14.9427 57.4418C14.5646 57.0491 14.3846 56.488 14.3846 55.74C14.3846 55.2537 14.4566 54.8423 14.6187 54.487C14.7806 54.1317 15.0148 53.8698 15.3388 53.6829C15.6629 53.4959 16.0229 53.421 16.401 53.421C16.8871 53.421 17.2831 53.5332 17.5892 53.7763C17.8952 54.0195 18.0932 54.3561 18.1832 54.8049L17.4452 54.9171C17.3731 54.6179 17.247 54.3935 17.0671 54.2439C16.8871 54.0943 16.671 54.0195 16.4189 54.0195C16.0409 54.0195 15.7348 54.1504 15.4829 54.4309C15.2488 54.7114 15.1227 55.1228 15.1227 55.7213C15.1227 56.3197 15.2307 56.7498 15.4649 57.0116C15.6988 57.2734 16.0049 57.423 16.3649 57.423C16.671 57.423 16.9051 57.3295 17.1031 57.1612C17.3551 56.9929 17.4812 56.7124 17.5352 56.3383ZM13.2323 56.3383L13.9705 56.4318C13.8805 56.9369 13.6825 57.3296 13.3404 57.61C12.9984 57.8906 12.6022 58.0402 12.1162 58.0402C11.504 58.0402 11.018 57.8345 10.6399 57.4418C10.2618 57.0491 10.0818 56.488 10.0818 55.74C10.0818 55.2537 10.1539 54.8423 10.3159 54.487C10.4779 54.1317 10.712 53.8698 11.0539 53.6829C11.3781 53.4959 11.7382 53.421 12.1162 53.421C12.6022 53.421 12.9984 53.5332 13.3044 53.7763C13.6105 54.0195 13.8085 54.3561 13.8985 54.8049L13.1604 54.9171C13.0884 54.6179 12.9623 54.3935 12.7824 54.2439C12.6022 54.0943 12.3863 54.0195 12.1342 54.0195C11.7562 54.0195 11.4501 54.1504 11.1981 54.4309C10.9639 54.7114 10.838 55.1228 10.838 55.7213C10.838 56.3197 10.9459 56.7498 11.18 57.0116C11.414 57.2734 11.7021 57.423 12.0801 57.423C12.3863 57.423 12.6203 57.3295 12.8183 57.1612C13.0523 56.9929 13.1784 56.7124 13.2323 56.3383ZM6.06713 59.6672L5.97713 58.9753C6.13911 59.0126 6.28318 59.0501 6.40912 59.0501C6.57122 59.0501 6.71517 59.0126 6.80528 58.9753C6.9132 58.9192 6.98529 58.8444 7.05727 58.7509C7.11133 58.676 7.18332 58.489 7.29134 58.1898C7.30936 58.1524 7.32728 58.0963 7.36332 58.0028L5.67108 53.5519H6.48121L7.41739 56.1139C7.54333 56.4318 7.65135 56.7872 7.74135 57.1426C7.83146 56.8059 7.93949 56.4693 8.04751 56.1514L9.00158 53.5706H9.75777L8.06543 58.0776C7.88542 58.5638 7.74135 58.9004 7.63344 59.0875C7.50738 59.3306 7.3453 59.5177 7.16529 59.6298C6.98529 59.742 6.78726 59.7981 6.53517 59.7981C6.40912 59.7607 6.24714 59.7234 6.06713 59.6672ZM0.810194 54.5431H2.57441C2.95255 54.5431 3.24058 54.5057 3.43861 54.4309C3.65466 54.3561 3.79873 54.2252 3.90675 54.0568C4.01478 53.8886 4.06873 53.7016 4.06873 53.5145C4.06873 53.234 3.96071 52.9908 3.74466 52.8039C3.52862 52.6169 3.20454 52.5234 2.75453 52.5234H0.810194V54.5431ZM0 57.9654V51.8501H2.73651C3.29465 51.8501 3.70872 51.9061 3.99675 52.0184C4.28479 52.1306 4.50084 52.3177 4.68084 52.5982C4.84293 52.8786 4.93293 53.178 4.93293 53.5145C4.93293 53.9446 4.78886 54.3187 4.50084 54.6179C4.2128 54.9171 3.7807 55.1042 3.18663 55.179C3.40256 55.2725 3.56466 55.3847 3.67269 55.4782C3.90675 55.7026 4.14072 55.9644 4.33874 56.2823L5.40097 57.9467H4.37479L3.56466 56.675C3.33058 56.301 3.13256 56.0205 2.97058 55.8335C2.80849 55.6465 2.68244 55.4969 2.5565 55.4221C2.43046 55.3472 2.30441 55.2912 2.17836 55.2537C2.08836 55.235 1.94439 55.2163 1.72835 55.2163H0.792173V57.9279H0V57.9654Z" fill="#F9F0EC" stroke="#F9F0EC" stroke-width="0.3"/>
<path d="M46.8529 62.6407C46.8138 63.5485 46.6766 64.2194 46.4415 64.6535H47.9306V62.6407H46.8529ZM46.4611 62.2461H48.3813V64.6339H48.6752V65.7981H48.2832V65.0087H46.1085V65.7981H45.7165V64.6339H45.9713C46.3239 64.1996 46.4806 63.3906 46.4611 62.2461ZM44.9131 63.6274C44.7368 63.7063 44.4821 63.7655 44.149 63.805C43.9531 63.8247 43.8159 63.8642 43.7376 63.9037C43.6591 63.9431 43.6004 63.9826 43.5612 64.0616C43.5221 64.1207 43.5024 64.1996 43.5024 64.2786C43.5024 64.397 43.5416 64.5155 43.6396 64.5943C43.7376 64.6733 43.8748 64.7127 44.0511 64.7127C44.2274 64.7127 44.3841 64.6733 44.541 64.5943C44.678 64.5155 44.776 64.4167 44.8545 64.2786C44.9131 64.18 44.9328 64.0221 44.9328 63.805L44.9131 63.6274ZM44.9328 64.6733C44.7564 64.8311 44.5997 64.9298 44.4234 64.989C44.2666 65.0482 44.0903 65.0878 43.9139 65.0878C43.6004 65.0878 43.3849 65.0087 43.2085 64.8706C43.0518 64.7325 42.9735 64.5351 42.9735 64.2983C42.9735 64.1602 43.0126 64.0418 43.0714 63.9234C43.1301 63.805 43.2085 63.7261 43.3065 63.6471C43.4045 63.5879 43.5221 63.5287 43.6396 63.4893C43.7376 63.4695 43.8748 63.4498 44.0511 63.4103C44.4234 63.3709 44.7173 63.3117 44.8936 63.2525C44.8936 63.1933 44.8936 63.1538 44.8936 63.1341C44.8936 62.9367 44.8545 62.7986 44.7564 62.7196C44.6389 62.621 44.4625 62.5618 44.2274 62.5618C44.0118 62.5618 43.8355 62.6012 43.7376 62.6802C43.6396 62.7591 43.5612 62.8973 43.5024 63.0946L43.0518 63.0354C43.091 62.838 43.1694 62.6802 43.2673 62.5618C43.3653 62.4434 43.5024 62.3447 43.6788 62.2855C43.8551 62.2263 44.0706 62.1869 44.3058 62.1869C44.541 62.1869 44.7368 62.2066 44.874 62.2658C45.0307 62.325 45.1287 62.3842 45.2071 62.4829C45.2854 62.5618 45.3247 62.6802 45.3442 62.7986C45.3638 62.8775 45.3638 63.0157 45.3638 63.2327V63.8642C45.3638 64.2984 45.3834 64.5746 45.3834 64.693C45.403 64.8114 45.4423 64.9298 45.501 65.0285H45.0111C44.9916 64.9298 44.9524 64.8114 44.9328 64.6733ZM40.6026 63.6471C40.6026 64.0023 40.6809 64.2589 40.8181 64.4365C40.9552 64.6141 41.1316 64.693 41.3471 64.693C41.5626 64.693 41.739 64.5943 41.8761 64.4365C42.0329 64.2589 42.0916 63.9826 42.0916 63.6077C42.0916 63.2525 42.0133 62.9959 41.8761 62.8183C41.739 62.6407 41.5626 62.5618 41.3667 62.5618C41.1708 62.5618 40.9944 62.6605 40.8377 62.838C40.6809 63.0354 40.6026 63.2919 40.6026 63.6471ZM40.1714 66.0942V62.2461H40.6026V62.621C40.7006 62.4829 40.8181 62.3645 40.9357 62.3053C41.0533 62.2263 41.2099 62.2066 41.3863 62.2066C41.6214 62.2066 41.837 62.2658 42.0133 62.3842C42.1895 62.5026 42.3267 62.6802 42.4247 62.8973C42.5228 63.1143 42.5619 63.3709 42.5619 63.6274C42.5619 63.9037 42.5032 64.1602 42.4052 64.397C42.3072 64.6339 42.1504 64.7917 41.9546 64.9101C41.7586 65.0285 41.5626 65.0878 41.3471 65.0878C41.1903 65.0878 41.0533 65.0482 40.9357 64.989C40.8181 64.9298 40.7201 64.8311 40.6221 64.7325V66.0942H40.1714ZM38.2318 62.2461H39.8188V62.6407H38.702V65.0285H38.2318V62.2461ZM35.2926 62.2461H35.763V63.4103H37.0561V62.2461H37.5263V65.0285H37.0561V63.805H35.763V65.0285H35.2926V62.2461ZM32.3339 62.2461H32.8043V64.3773L34.0974 62.2461H34.6069V65.0285H34.1366V62.917L32.8434 65.0285H32.3339V62.2461ZM29.3949 62.2461H29.8651V63.4103H31.1584V62.2461H31.6286V65.0285H31.1584V63.805H29.8651V65.0285H29.3949V62.2461ZM26.4167 62.2461H26.8869V64.3773L28.18 62.2461H28.6896V65.0285H28.2193V62.917L26.9261 65.0285H26.4167V62.2461ZM23.5363 62.2461H25.7112V65.0285H25.241V62.6407H24.0066V64.0221C24.0066 64.3378 23.987 64.5549 23.9675 64.6535C23.9479 64.7522 23.8891 64.8509 23.7911 64.9298C23.6931 65.0087 23.5559 65.0482 23.3796 65.0482C23.2621 65.0482 23.1445 65.0482 23.0073 65.0285V64.6339H23.2032C23.3012 64.6339 23.3601 64.6141 23.4187 64.5943C23.458 64.5746 23.4972 64.5351 23.4972 64.4957C23.5168 64.4562 23.5168 64.318 23.5168 64.0616V62.2461H23.5363ZM22.106 63.6274C21.9297 63.7063 21.675 63.7655 21.3419 63.805C21.1459 63.8247 21.0088 63.8642 20.9304 63.9037C20.852 63.9431 20.7932 63.9826 20.7541 64.0616C20.7148 64.1207 20.6953 64.1996 20.6953 64.2786C20.6953 64.397 20.7344 64.5155 20.8324 64.5943C20.9304 64.6733 21.0676 64.7127 21.2439 64.7127C21.4202 64.7127 21.577 64.6733 21.7337 64.5943C21.8709 64.5155 21.9689 64.4167 22.0473 64.2786C22.106 64.18 22.1256 64.0221 22.1256 63.805L22.106 63.6274ZM22.1453 64.6733C21.9689 64.8311 21.8121 64.9298 21.6357 64.989C21.4791 65.0482 21.3027 65.0878 21.1264 65.0878C20.8324 65.0878 20.5974 65.0087 20.4209 64.8706C20.2642 64.7325 20.1858 64.5351 20.1858 64.2983C20.1858 64.1602 20.2251 64.0418 20.2838 63.9234C20.3426 63.805 20.4209 63.7261 20.5189 63.6471C20.6169 63.5879 20.7344 63.5287 20.852 63.4893C20.9499 63.4695 21.0871 63.4498 21.2636 63.4103C21.6357 63.3709 21.9297 63.3117 22.106 63.2525C22.106 63.1933 22.106 63.1538 22.106 63.1341C22.106 62.9367 22.0668 62.7986 21.9689 62.7196C21.8512 62.621 21.675 62.5618 21.4398 62.5618C21.2243 62.5618 21.048 62.6012 20.9499 62.6802C20.852 62.7591 20.7737 62.8973 20.7148 63.0946L20.2642 63.0354C20.3034 62.838 20.3817 62.6802 20.4798 62.5618C20.5778 62.4434 20.7148 62.3447 20.8913 62.2855C21.0676 62.2263 21.2831 62.1869 21.5182 62.1869C21.7533 62.1869 21.9493 62.2066 22.0864 62.2658C22.2432 62.325 22.3411 62.3842 22.4195 62.4829C22.4979 62.5618 22.5371 62.6802 22.5567 62.7986C22.5763 62.8775 22.5763 63.0157 22.5763 63.2327V63.8642C22.5763 64.2984 22.5959 64.5746 22.6155 64.693C22.635 64.8114 22.6742 64.9298 22.7331 65.0285H22.2432C22.204 64.9298 22.1649 64.8114 22.1453 64.6733ZM17.3252 61.2002H17.8345V62.8775C18.0697 62.8775 18.2265 62.838 18.3244 62.7394C18.4224 62.6407 18.54 62.4237 18.6772 62.0882C18.7751 61.8316 18.8731 61.6541 18.9318 61.5554C18.9906 61.4567 19.0886 61.358 19.2257 61.2989C19.3433 61.2199 19.5001 61.2002 19.6372 61.2002C19.8331 61.2002 19.931 61.2002 19.9507 61.2002V61.6343C19.931 61.6343 19.8919 61.6343 19.8527 61.6343C19.794 61.6343 19.7547 61.6343 19.7547 61.6343C19.598 61.6343 19.4804 61.6738 19.4021 61.7527C19.3238 61.8317 19.2257 61.9895 19.1278 62.2461C18.9906 62.5618 18.8927 62.7789 18.7948 62.8578C18.7163 62.9367 18.5987 63.0157 18.4812 63.0551C18.7359 63.1143 18.971 63.3511 19.2062 63.7458L19.9899 65.0285H19.3629L18.7163 63.9826C18.54 63.6866 18.4028 63.4893 18.2852 63.3906C18.1677 63.2919 18.011 63.2327 17.8345 63.2327V65.0285H17.3252V61.2002Z" fill="#F9F0EC" stroke="#F9F0EC" stroke-width="0.3"/>
</g>
<defs>
<clipPath id="clip0_1_2881">
<rect width="66" height="68" fill="white"/>
</clipPath>
</defs>
</svg>
